<svg width="500" height="500" viewBox="0 0 500 500" fill="none" xmlns="http://www.w3.org/2000/svg">
<rect width="500" height="500" rx="140" fill="#6527CF"/>
<path d="M214.08 132.965C235.498 117.403 264.502 117.403 285.92 132.965L350.207 179.672C371.626 195.233 380.588 222.817 372.407 247.996L347.852 323.57C339.671 348.749 316.207 365.797 289.732 365.797H210.268C183.793 365.797 160.329 348.749 152.148 323.57L127.593 247.996C119.412 222.817 128.374 195.233 149.793 179.672L214.08 132.965Z" stroke="#D9D9D9" stroke-width="11.1111"/>
<path d="M223.875 146.759C239.453 135.441 260.547 135.441 276.125 146.759L340.115 193.251C355.693 204.569 362.212 224.63 356.262 242.943L331.819 318.168C325.869 336.481 308.804 348.88 289.548 348.88H210.452C191.196 348.88 174.131 336.481 168.181 318.169L143.739 242.943C137.788 224.63 144.307 204.569 159.885 193.251L223.875 146.759Z" fill="#D9D9D9"/>
<path d="M294.685 215.385L230.646 279.423L201.538 250.315" stroke="#6527CF" stroke-width="9.23114" stroke-linecap="round" stroke-linejoin="round"/>
</svg>
